<svg width="40" height="40" viewBox="0 0 40 40" fill="none" xmlns="http://www.w3.org/2000/svg">
<path d="M28.3362 4.97485C28.1427 4.78084 27.9128 4.62691 27.6597 4.52188C27.4066 4.41685 27.1353 4.36279 26.8612 4.36279C26.5872 4.36279 26.3159 4.41685 26.0628 4.52188C25.8097 4.62691 25.5798 4.78084 25.3862 4.97485L11.5362 18.8248C11.3817 18.979 11.2591 19.1622 11.1755 19.3638C11.0919 19.5654 11.0488 19.7816 11.0488 19.9998C11.0488 20.2181 11.0919 20.4343 11.1755 20.6359C11.2591 20.8375 11.3817 21.0207 11.5362 21.1748L25.3862 35.0248C26.2029 35.8415 27.5196 35.8415 28.3362 35.0248C29.1529 34.2082 29.1529 32.8915 28.3362 32.0749L16.2696 19.9915L28.3529 7.90818C29.1529 7.10818 29.1529 5.77485 28.3362 4.97485Z" fill="#FFC491"/>
</svg>
