<svg width="32" height="32" viewBox="0 0 32 32" fill="none" xmlns="http://www.w3.org/2000/svg">
<g clip-path="url(#clip0_3158_778)">
<path d="M2.79199 15.9998C2.79199 8.70887 8.70936 2.7915 16.0003 2.7915C23.2913 2.7915 29.2087 8.70887 29.2087 15.9998C29.2087 23.2908 23.2913 29.2082 16.0003 29.2082C8.70936 29.2082 2.79199 23.2908 2.79199 15.9998ZM5.20866 15.9998C5.20866 21.9489 10.0513 26.7915 16.0003 26.7915C21.9494 26.7915 26.792 21.9489 26.792 15.9998C26.792 10.0508 21.9494 5.20817 16.0003 5.20817C10.0513 5.20817 5.20866 10.0508 5.20866 15.9998ZM18.5862 18.5857L8.9245 23.0757L13.4144 13.4139L23.0762 8.92401L18.5862 18.5857ZM17.592 15.9998C17.592 15.1175 16.8827 14.4082 16.0003 14.4082C15.118 14.4082 14.4087 15.1175 14.4087 15.9998C14.4087 16.8822 15.118 17.5915 16.0003 17.5915C16.8827 17.5915 17.592 16.8822 17.592 15.9998Z" fill="#FFC491" stroke="#2F2F2F" stroke-width="0.25"/>
</g>
<defs>
<clipPath id="clip0_3158_778">
<rect width="32" height="32" fill="white"/>
</clipPath>
</defs>
</svg>
