<svg width="20" height="20" viewBox="0 0 20 20" fill="none" xmlns="http://www.w3.org/2000/svg">
<mask id="path-1-inside-1_3138_1155" fill="white">
<path d="M16.8754 17.4999C16.7933 17.5001 16.712 17.4839 16.6362 17.4525C16.5604 17.421 16.4915 17.3749 16.4336 17.3167L2.68361 3.56671C2.57134 3.44855 2.50968 3.29121 2.51177 3.12823C2.51386 2.96525 2.57953 2.80954 2.69478 2.69429C2.81003 2.57904 2.96574 2.51337 3.12872 2.51128C3.29169 2.5092 3.44904 2.57086 3.5672 2.68312L17.3172 16.4331C17.4046 16.5205 17.464 16.6319 17.4881 16.7531C17.5122 16.8743 17.4998 16.9999 17.4526 17.1141C17.4053 17.2282 17.3252 17.3258 17.2225 17.3945C17.1198 17.4632 16.999 17.4999 16.8754 17.4999ZM9.6879 12.3378L7.66486 10.3148C7.65327 10.3033 7.63836 10.2957 7.62224 10.2931C7.60613 10.2905 7.5896 10.293 7.57499 10.3003C7.56038 10.3076 7.54842 10.3193 7.54078 10.3337C7.53315 10.3481 7.53023 10.3646 7.53244 10.3808C7.61411 10.9056 7.86055 11.3909 8.23615 11.7665C8.61174 12.1421 9.09703 12.3886 9.62189 12.4702C9.63806 12.4724 9.65452 12.4695 9.66896 12.4619C9.68339 12.4542 9.69507 12.4423 9.70235 12.4277C9.70963 12.4131 9.71216 12.3965 9.70957 12.3804C9.70697 12.3643 9.6994 12.3494 9.6879 12.3378ZM10.3129 7.66203L12.3391 9.68742C12.3506 9.69907 12.3656 9.70679 12.3818 9.70947C12.398 9.71215 12.4146 9.70966 12.4293 9.70236C12.444 9.69505 12.456 9.68329 12.4637 9.66876C12.4713 9.65423 12.4742 9.63766 12.4719 9.6214C12.3904 9.09583 12.1438 8.60983 11.7677 8.23376C11.3917 7.85769 10.9057 7.61107 10.3801 7.5296C10.3638 7.52709 10.3472 7.52979 10.3325 7.53731C10.3179 7.54483 10.306 7.55678 10.2985 7.57147C10.2911 7.58615 10.2884 7.60282 10.291 7.61908C10.2936 7.63534 10.3013 7.65037 10.3129 7.66203Z"/>
</mask>
<path d="M16.8754 17.4999C16.7933 17.5001 16.712 17.4839 16.6362 17.4525C16.5604 17.421 16.4915 17.3749 16.4336 17.3167L2.68361 3.56671C2.57134 3.44855 2.50968 3.29121 2.51177 3.12823C2.51386 2.96525 2.57953 2.80954 2.69478 2.69429C2.81003 2.57904 2.96574 2.51337 3.12872 2.51128C3.29169 2.5092 3.44904 2.57086 3.5672 2.68312L17.3172 16.4331C17.4046 16.5205 17.464 16.6319 17.4881 16.7531C17.5122 16.8743 17.4998 16.9999 17.4526 17.1141C17.4053 17.2282 17.3252 17.3258 17.2225 17.3945C17.1198 17.4632 16.999 17.4999 16.8754 17.4999ZM9.6879 12.3378L7.66486 10.3148C7.65327 10.3033 7.63836 10.2957 7.62224 10.2931C7.60613 10.2905 7.5896 10.293 7.57499 10.3003C7.56038 10.3076 7.54842 10.3193 7.54078 10.3337C7.53315 10.3481 7.53023 10.3646 7.53244 10.3808C7.61411 10.9056 7.86055 11.3909 8.23615 11.7665C8.61174 12.1421 9.09703 12.3886 9.62189 12.4702C9.63806 12.4724 9.65452 12.4695 9.66896 12.4619C9.68339 12.4542 9.69507 12.4423 9.70235 12.4277C9.70963 12.4131 9.71216 12.3965 9.70957 12.3804C9.70697 12.3643 9.6994 12.3494 9.6879 12.3378ZM10.3129 7.66203L12.3391 9.68742C12.3506 9.69907 12.3656 9.70679 12.3818 9.70947C12.398 9.71215 12.4146 9.70966 12.4293 9.70236C12.444 9.69505 12.456 9.68329 12.4637 9.66876C12.4713 9.65423 12.4742 9.63766 12.4719 9.6214C12.3904 9.09583 12.1438 8.60983 11.7677 8.23376C11.3917 7.85769 10.9057 7.61107 10.3801 7.5296C10.3638 7.52709 10.3472 7.52979 10.3325 7.53731C10.3179 7.54483 10.306 7.55678 10.2985 7.57147C10.2911 7.58615 10.2884 7.60282 10.291 7.61908C10.2936 7.63534 10.3013 7.65037 10.3129 7.66203Z" fill="#999999"/>
<path d="M16.8754 17.4999L16.8749 16.4999L16.8738 16.4999L16.8754 17.4999ZM16.4336 17.3167L17.1424 16.6113L17.1407 16.6096L16.4336 17.3167ZM2.68361 3.56671L1.95863 4.25548L1.96745 4.26477L1.9765 4.27382L2.68361 3.56671ZM3.5672 2.68312L4.27431 1.97601L4.26525 1.96696L4.25597 1.95814L3.5672 2.68312ZM17.3172 16.4331L18.0245 15.7262L18.0243 15.726L17.3172 16.4331ZM9.6879 12.3378L10.398 11.6337L10.395 11.6307L9.6879 12.3378ZM7.66486 10.3148L8.37197 9.60765L8.369 9.60471L7.66486 10.3148ZM7.53244 10.3808L6.54158 10.5157L6.54287 10.5251L6.54433 10.5345L7.53244 10.3808ZM9.62189 12.4702L9.46813 13.4583L9.47752 13.4598L9.48694 13.4611L9.62189 12.4702ZM10.3129 7.66203L9.60538 8.36872L9.60593 8.36927L10.3129 7.66203ZM12.3391 9.68742L13.049 8.98316L13.046 8.98017L12.3391 9.68742ZM12.4719 9.6214L13.462 9.48064L13.4601 9.46822L12.4719 9.6214ZM10.3801 7.5296L10.5333 6.5414L10.5326 6.5413L10.3801 7.5296ZM16.8738 16.4999C16.9237 16.4998 16.9731 16.5096 17.0192 16.5288L16.2531 18.3762C16.4509 18.4582 16.6629 18.5003 16.877 18.4999L16.8738 16.4999ZM17.0192 16.5288C17.0653 16.5479 17.1072 16.5759 17.1424 16.6113L15.7248 18.0221C15.8758 18.1739 16.0554 18.2942 16.2531 18.3762L17.0192 16.5288ZM17.1407 16.6096L3.39071 2.85961L1.9765 4.27382L15.7265 18.0238L17.1407 16.6096ZM3.40859 2.87794C3.47594 2.94884 3.51294 3.04325 3.51169 3.14103L1.51185 3.11543C1.50643 3.53916 1.66675 3.94826 1.95863 4.25548L3.40859 2.87794ZM3.51169 3.14103C3.51044 3.23882 3.47104 3.33224 3.40188 3.4014L1.98767 1.98718C1.68802 2.28684 1.51728 2.69169 1.51185 3.11543L3.51169 3.14103ZM3.40188 3.4014C3.33273 3.47055 3.2393 3.50995 3.14152 3.5112L3.11592 1.51136C2.69218 1.51679 2.28732 1.68753 1.98767 1.98718L3.40188 3.4014ZM3.14152 3.5112C3.04373 3.51245 2.94933 3.47545 2.87843 3.4081L4.25597 1.95814C3.94875 1.66626 3.53965 1.50594 3.11592 1.51136L3.14152 3.5112ZM2.86009 3.39023L16.6101 17.1402L18.0243 15.726L4.27431 1.97601L2.86009 3.39023ZM16.6099 17.14C16.5575 17.0876 16.5218 17.0207 16.5073 16.948L18.4689 16.5581C18.4063 16.243 18.2516 15.9535 18.0245 15.7262L16.6099 17.14ZM16.5073 16.948C16.4929 16.8753 16.5003 16.7999 16.5287 16.7314L18.3765 17.4967C18.4994 17.1998 18.5316 16.8732 18.4689 16.5581L16.5073 16.948ZM16.5287 16.7314C16.557 16.6629 16.6051 16.6044 16.6667 16.5632L17.7783 18.2258C18.0454 18.0472 18.2535 17.7935 18.3765 17.4967L16.5287 16.7314ZM16.6667 16.5632C16.7283 16.522 16.8008 16.5 16.8749 16.4999L16.8759 18.4999C17.1972 18.4998 17.5112 18.4044 17.7783 18.2258L16.6667 16.5632ZM10.395 11.6307L8.37196 9.60765L6.95775 11.0219L8.9808 13.0449L10.395 11.6307ZM8.369 9.60471C8.20902 9.44605 8.00336 9.34152 7.78095 9.30577L7.46354 11.2804C7.27336 11.2499 7.09751 11.1605 6.96071 11.0248L8.369 9.60471ZM7.78095 9.30577C7.55854 9.27002 7.33049 9.30483 7.12883 9.40536L8.02115 11.1953C7.84871 11.2812 7.65371 11.311 7.46354 11.2804L7.78095 9.30577ZM7.12883 9.40536C6.92719 9.50588 6.76212 9.66705 6.6568 9.86619L8.42477 10.8012C8.33471 10.9715 8.19357 11.1093 8.02115 11.1953L7.12883 9.40536ZM6.6568 9.86619C6.55146 10.0654 6.51118 10.2925 6.54158 10.5157L8.52329 10.2458C8.54928 10.4367 8.51484 10.6309 8.42477 10.8012L6.6568 9.86619ZM6.54433 10.5345C6.65861 11.269 7.00346 11.948 7.52904 12.4736L8.94325 11.0594C8.71764 10.8338 8.5696 10.5423 8.52054 10.227L6.54433 10.5345ZM7.52904 12.4736C8.05461 12.9992 8.73369 13.3441 9.46813 13.4583L9.77565 11.4821C9.46038 11.4331 9.16887 11.285 8.94325 11.0594L7.52904 12.4736ZM9.48694 13.4611C9.71018 13.4915 9.93733 13.4512 10.1365 13.3459L9.20143 11.5779C9.37172 11.4878 9.56595 11.4534 9.75683 11.4794L9.48694 13.4611ZM10.1365 13.3459C10.3356 13.2405 10.4968 13.0755 10.5973 12.8738L8.80739 11.9815C8.89334 11.8091 9.03114 11.668 9.20143 11.5779L10.1365 13.3459ZM10.5973 12.8738C10.6978 12.6722 10.7326 12.4442 10.6969 12.2217L8.72224 12.5391C8.69166 12.3489 8.72145 12.1539 8.80739 11.9815L10.5973 12.8738ZM10.6969 12.2217C10.6611 11.9993 10.5566 11.7936 10.398 11.6337L8.97785 13.042C8.84221 12.9052 8.75281 12.7293 8.72224 12.5391L10.6969 12.2217ZM9.60593 8.36927L11.6321 10.3947L13.046 8.98017L11.0199 6.95478L9.60593 8.36927ZM11.6291 10.3917C11.7887 10.5525 11.9949 10.659 12.2184 10.696L12.5451 8.7229C12.7363 8.75455 12.9126 8.84562 13.049 8.98317L11.6291 10.3917ZM12.2184 10.696C12.442 10.7331 12.6715 10.6987 12.8744 10.5978L11.9842 8.80688C12.1577 8.72064 12.354 8.69126 12.5451 8.7229L12.2184 10.696ZM12.8744 10.5978C13.0773 10.497 13.2433 10.3348 13.3488 10.1342L11.5786 9.20331C11.6688 9.03183 11.8107 8.89312 11.9842 8.80688L12.8744 10.5978ZM13.3488 10.1342C13.4542 9.93365 13.4938 9.70497 13.4619 9.48065L11.4818 9.76215C11.4546 9.57035 11.4884 9.37481 11.5786 9.20331L13.3488 10.1342ZM13.4601 9.46822C13.3461 8.73286 13.001 8.05285 12.4748 7.52665L11.0606 8.94087C11.2866 9.16682 11.4347 9.45881 11.4837 9.77458L13.4601 9.46822ZM12.4748 7.52665C11.9486 7.00046 11.2686 6.65539 10.5333 6.5414L10.2269 8.5178C10.5427 8.56675 10.8347 8.71492 11.0606 8.94087L12.4748 7.52665ZM10.5326 6.5413C10.308 6.50664 10.0782 6.54386 9.87598 6.6476L10.789 8.42701C10.6162 8.51572 10.4197 8.54754 10.2276 8.51791L10.5326 6.5413ZM9.87598 6.6476C9.67381 6.75134 9.50956 6.91632 9.40673 7.119L11.1903 8.02393C11.1024 8.19724 10.9619 8.33831 10.789 8.42701L9.87598 6.6476ZM9.40673 7.119C9.30389 7.32169 9.26775 7.55166 9.30342 7.77607L11.2786 7.46209C11.3091 7.65397 11.2782 7.85061 11.1903 8.02393L9.40673 7.119ZM9.30342 7.77607C9.3391 8.0005 9.44478 8.20793 9.60538 8.36872L11.0204 6.95533C11.1578 7.09282 11.2481 7.27019 11.2786 7.46209L9.30342 7.77607Z" fill="#999999" mask="url(#path-1-inside-1_3138_1155)"/>
<path d="M18.7576 10.4102L18.758 10.4095C18.8359 10.2872 18.8771 10.1451 18.8767 10.0001C18.8763 9.85508 18.8343 9.71324 18.7556 9.5914L19.1758 9.32031M18.7576 10.4102L15.0269 5.81343C16.4668 6.74331 17.7583 8.04905 18.7559 9.59181L19.1758 9.32031M18.7576 10.4102C18.1218 11.4117 17.3515 12.3205 16.4687 13.1114L14.1744 10.8154C14.3017 10.1649 14.2752 9.49263 14.0959 8.8526C13.899 8.15003 13.5246 7.50996 13.0087 6.99403C12.4928 6.4781 11.8527 6.10369 11.1501 5.90683C10.51 5.72749 9.83767 5.70103 9.18706 5.82839L7.88173 4.52307M18.7576 10.4102L7.88173 4.52307M19.1758 9.32031C19.3063 9.52255 19.376 9.75797 19.3767 9.99865C19.3774 10.2393 19.309 10.4751 19.1797 10.6781L15.298 5.39336C16.8012 6.36406 18.1422 7.72188 19.1758 9.32031ZM7.88173 4.52307C8.56854 4.34294 9.27627 4.25099 9.98784 4.25C11.6917 4.25007 13.4344 4.78545 15.0268 5.81339L7.88173 4.52307ZM7.08006 4.32322L7.07925 4.32302L7.08006 4.32322ZM7.08006 4.32322L7.23134 4.35881L7.08006 4.32322ZM12.6712 15.3231C12.6713 15.3231 12.6713 15.323 12.6714 15.323L12.6712 15.3231ZM12.6712 15.3231C12.6157 15.3411 12.5657 15.373 12.5259 15.4157C12.4857 15.4589 12.4573 15.5117 12.4434 15.569C12.4295 15.6263 12.4306 15.6862 12.4465 15.743L12.7769 15.6501L12.4465 15.743C12.4619 15.7978 12.4907 15.8479 12.5302 15.8888L10 14.25C10.273 14.2501 10.5452 14.2239 10.8128 14.1719M12.6712 15.3231C12.4898 15.3817 12.3067 15.4344 12.1223 15.4811M12.1223 15.4811L10.8128 14.1719M12.1223 15.4811C11.4249 15.6575 10.7077 15.748 9.98687 15.75C8.22415 15.7499 6.52646 15.2344 4.93456 14.2041L4.93446 14.204C3.51965 13.2888 2.24167 11.9825 1.24515 10.423L1.24516 10.423L1.2441 10.4213C1.16387 10.2968 1.12245 10.1513 1.12512 10.0032C1.12779 9.85523 1.17438 9.71135 1.25898 9.58987C1.97623 8.56315 2.75098 7.67722 3.57724 6.93601L5.8281 9.18788C5.71781 9.75444 5.72395 10.3382 5.84695 10.9036C5.98373 11.5322 6.26145 12.1216 6.65918 12.6273C7.0569 13.133 7.56425 13.5418 8.14296 13.8229L8.36141 13.3732L8.14296 13.8229C8.72161 14.104 9.3565 14.25 9.99978 14.25L9.9875 16.25C10.8482 16.2477 11.7038 16.126 12.5301 15.8888L12.1223 15.4811ZM10.8128 14.1719C10.8763 14.1595 10.9396 14.1457 11.0025 14.1305L11.0025 14.1305L11.0074 14.1293C11.0058 14.1297 11.0041 14.1301 11.0025 14.1305C10.9463 14.1438 10.8875 14.1428 10.8318 14.1274L10.9222 13.7991L10.9231 13.7961L10.9231 13.796L10.9231 13.7961L10.9222 13.7991L10.8317 14.1274C10.7744 14.1116 10.7221 14.0812 10.6801 14.0391L10.8128 14.1719ZM3.593 6.46554L3.59296 6.4655L3.593 6.46554ZM3.593 6.46554L3.81468 6.72819M3.593 6.46554L3.81468 6.72819M3.81468 6.72819C3.74882 6.78378 3.66447 6.8126 3.57836 6.80894M3.81468 6.72819L3.57836 6.80894M3.57836 6.80894L3.59296 6.46558L3.57836 6.80894ZM7.23179 4.35868L7.232 4.35862L7.23179 4.35868ZM7.33983 4.68499L7.34124 4.68452L7.33983 4.68499ZM16.6957 13.3386C16.6958 13.3387 16.6959 13.3388 16.696 13.3389L16.6959 13.3388L16.6957 13.3386ZM14.0414 10.6823C14.0415 10.6825 14.0417 10.6826 14.0418 10.6828L14.0416 10.6825L14.0414 10.6823ZM9.32029 5.96162L9.31996 5.96129C9.32007 5.9614 9.32018 5.96151 9.32029 5.96162ZM12.9293 15.6868C12.9356 15.6608 12.9351 15.6335 12.9279 15.6077L12.9293 15.6868Z" fill="#999999" stroke="#999999"/>
</svg>
