<svg width="216" height="48" viewBox="0 0 216 48" fill="none" xmlns="http://www.w3.org/2000/svg">
<g clip-path="url(#clip0_3158_785)">
<path d="M41.5758 7.6641C41.3738 7.4541 41.1818 7.2381 40.9738 7.0301C40.7671 6.8261 40.5538 6.62476 40.3338 6.4261C35.9067 2.28127 30.0643 -0.0171934 23.9998 9.68458e-05C20.8468 -0.00794818 17.7235 0.609013 14.8104 1.81532C11.8972 3.02163 9.25208 4.79336 7.0278 7.0281C-2.1242 16.1801 -2.3202 30.9401 6.4258 40.3361C6.6218 40.5521 6.8218 40.7654 7.0258 40.9761C7.2338 41.1821 7.4458 41.3761 7.6598 41.5761C12.0909 45.7181 17.9342 48.0154 23.9998 48.0001C30.4118 48.0001 36.4398 45.5061 40.9738 40.9761C50.1258 31.8241 50.3198 17.0641 41.5758 7.6641ZM8.2658 8.2661C10.3276 6.19391 12.7797 4.55094 15.4804 3.43217C18.181 2.3134 21.0766 1.74101 23.9998 1.7481C29.6498 1.7481 34.9798 3.8441 39.0998 7.6641L37.0978 9.6681C33.5256 6.38799 28.8495 4.57294 23.9998 4.5841C21.4487 4.57669 18.9216 5.07563 16.5647 6.05201C14.2079 7.02839 12.0683 8.46279 10.2698 10.2721C8.4611 12.0705 7.0272 14.2099 6.05118 16.5663C5.07515 18.9228 4.5764 21.4495 4.5838 24.0001C4.5838 28.8961 6.3838 33.5061 9.6678 37.0981L7.6618 39.1001C-0.402195 30.3821 -0.202196 16.7341 8.2658 8.2661ZM35.8618 10.9021V10.9061L33.8318 12.9341C31.1304 10.5115 27.6284 9.17371 23.9998 9.1781C22.0529 9.17297 20.1244 9.55409 18.3258 10.2994C16.5273 11.0447 14.8944 12.1394 13.5218 13.5201C12.1405 14.8928 11.0453 16.5259 10.2996 18.3248C9.55398 20.1237 9.17267 22.0528 9.1778 24.0001C9.17246 27.6267 10.5097 31.1269 12.9318 33.8261L10.9038 35.8581C7.95179 32.6156 6.32134 28.3851 6.3338 24.0001C6.32735 21.6793 6.78153 19.3803 7.67002 17.2363C8.55851 15.0924 9.86365 13.146 11.5098 11.5101C13.1457 9.86394 15.0921 8.55881 17.2361 7.67032C19.38 6.78183 21.679 6.32765 23.9998 6.3341C28.4258 6.3341 32.6018 7.9521 35.8618 10.9021ZM37.0738 24.0001C37.0738 27.4901 35.7118 30.7741 33.2418 33.2441C30.7718 35.7141 27.4918 37.0761 23.9998 37.0761C20.8368 37.0767 17.782 35.924 15.4078 33.8341L15.4058 33.8261C15.1858 33.6381 14.9658 33.4501 14.7578 33.2441C14.5546 33.034 14.3591 32.8165 14.1718 32.5921C12.0778 30.2205 10.9251 27.1639 10.9318 24.0001C10.9318 20.5081 12.2898 17.2261 14.7598 14.7581C15.9709 13.5416 17.411 12.577 18.9969 11.9199C20.5829 11.2629 22.2832 10.9265 23.9998 10.9301C27.1978 10.9301 30.2098 12.0821 32.5898 14.1701C32.8118 14.3621 33.0378 14.5501 33.2418 14.7601C33.4471 14.9694 33.6438 15.1854 33.8318 15.4081C35.925 17.7804 37.0781 20.8364 37.0738 24.0001ZM14.1678 35.0681C16.8684 37.4909 20.3717 38.8294 23.9998 38.8261C25.9473 38.8316 27.8764 38.45 29.6751 37.7036C31.4739 36.9572 33.1064 35.8608 34.4778 34.4781C35.8601 33.1065 36.9561 31.4739 37.7022 29.6752C38.4483 27.8765 38.8295 25.9474 38.8238 24.0001C38.8274 20.3724 37.4913 16.8711 35.0718 14.1681L37.0978 12.1441C40.0477 15.3871 41.6778 19.6162 41.6678 24.0001C41.6743 26.3214 41.2199 28.6208 40.331 30.7652C39.4422 32.9095 38.1366 34.8561 36.4898 36.4921C34.8546 38.1392 32.9083 39.4449 30.7642 40.3334C28.6201 41.222 26.3207 41.6757 23.9998 41.6681C19.6145 41.6791 15.3838 40.0489 12.1398 37.0981L14.1678 35.0681ZM39.7338 39.7341C37.6725 41.8068 35.2204 43.45 32.5196 44.5685C29.8189 45.687 26.923 46.2586 23.9998 46.2501C18.3979 46.2659 12.9993 44.1518 8.8978 40.3361L10.9058 38.3341C14.4769 41.6159 19.1538 43.4312 24.0038 43.4181C26.5552 43.425 29.0825 42.9254 31.4394 41.9483C33.7962 40.9713 35.9357 39.5361 37.7338 37.7261C39.5423 35.928 40.976 33.7889 41.952 31.4328C42.9281 29.0767 43.4269 26.5504 43.4198 24.0001C43.4319 19.1505 41.6159 14.4744 38.3338 10.9041L40.3358 8.9001C48.3978 17.6181 48.2058 31.2641 39.7338 39.7341Z" fill="#FFC491"/>
</g>
<path d="M68.832 33.416C65.4613 33.416 62.6667 32.3067 60.448 30.088C58.2293 27.848 57.12 25.0853 57.12 21.8C57.12 18.5147 58.2293 15.7627 60.448 13.544C62.6667 11.304 65.4613 10.184 68.832 10.184C70.8587 10.184 72.7253 10.664 74.432 11.624C76.16 12.584 77.504 13.8853 78.464 15.528L75.264 17.384C74.6667 16.2747 73.792 15.4 72.64 14.76C71.5093 14.0987 70.24 13.768 68.832 13.768C66.4427 13.768 64.5013 14.5253 63.008 16.04C61.536 17.5547 60.8 19.4747 60.8 21.8C60.8 24.1253 61.536 26.0453 63.008 27.56C64.5013 29.0747 66.4427 29.832 68.832 29.832C70.24 29.832 71.52 29.512 72.672 28.872C73.824 28.2107 74.688 27.3253 75.264 26.216L78.464 28.04C77.5253 29.6827 76.192 30.9947 74.464 31.976C72.7573 32.936 70.88 33.416 68.832 33.416ZM84.7175 13.96C84.2908 14.3867 83.7788 14.6 83.1815 14.6C82.5842 14.6 82.0615 14.3867 81.6135 13.96C81.1868 13.512 80.9735 12.9893 80.9735 12.392C80.9735 11.7947 81.1868 11.2827 81.6135 10.856C82.0402 10.408 82.5628 10.184 83.1815 10.184C83.8002 10.184 84.3228 10.408 84.7495 10.856C85.1762 11.2827 85.3895 11.7947 85.3895 12.392C85.3895 12.9893 85.1655 13.512 84.7175 13.96ZM81.4535 33V17H84.9095V33H81.4535ZM92.3783 19.688C93.2529 17.704 94.8956 16.712 97.3063 16.712V20.456C95.9836 20.3707 94.8316 20.6907 93.8503 21.416C92.8689 22.12 92.3783 23.2933 92.3783 24.936V33H88.9223V17H92.3783V19.688ZM106.662 33.416C104.251 33.416 102.235 32.6053 100.614 30.984C99.0138 29.3627 98.2138 27.368 98.2138 25C98.2138 22.6107 99.0138 20.616 100.614 19.016C102.235 17.3947 104.251 16.584 106.662 16.584C108.219 16.584 109.638 16.9573 110.918 17.704C112.198 18.4507 113.158 19.4533 113.798 20.712L110.822 22.44C110.459 21.672 109.904 21.0747 109.158 20.648C108.432 20.2 107.59 19.976 106.63 19.976C105.222 19.976 104.038 20.456 103.078 21.416C102.139 22.376 101.67 23.5707 101.67 25C101.67 26.4293 102.139 27.624 103.078 28.584C104.038 29.544 105.222 30.024 106.63 30.024C107.568 30.024 108.411 29.8 109.158 29.352C109.926 28.904 110.502 28.3067 110.886 27.56L113.862 29.256C113.179 30.536 112.198 31.5493 110.918 32.296C109.638 33.0427 108.219 33.416 106.662 33.416ZM116.36 33V9.64H119.816V33H116.36ZM126.549 26.472C126.805 27.688 127.391 28.6267 128.309 29.288C129.226 29.928 130.346 30.248 131.669 30.248C133.503 30.248 134.879 29.5867 135.797 28.264L138.645 29.928C137.066 32.2533 134.73 33.416 131.637 33.416C129.034 33.416 126.933 32.6267 125.333 31.048C123.733 29.448 122.933 27.432 122.933 25C122.933 22.6107 123.722 20.616 125.301 19.016C126.879 17.3947 128.906 16.584 131.381 16.584C133.727 16.584 135.647 17.4053 137.141 19.048C138.655 20.6907 139.413 22.6853 139.413 25.032C139.413 25.3947 139.37 25.8747 139.285 26.472H126.549ZM126.516 23.656H135.925C135.69 22.3547 135.146 21.3733 134.293 20.712C133.461 20.0507 132.479 19.72 131.349 19.72C130.069 19.72 129.002 20.072 128.149 20.776C127.295 21.48 126.751 22.44 126.516 23.656ZM165.27 33L163.702 28.488H154.166L152.598 33H148.598L156.726 10.6H161.142L169.238 33H165.27ZM155.382 25.032H162.486L158.934 14.92L155.382 25.032ZM180.478 16.584C182.676 16.584 184.553 17.4053 186.11 19.048C187.668 20.6693 188.446 22.6533 188.446 25C188.446 27.368 187.668 29.3627 186.11 30.984C184.553 32.6053 182.676 33.416 180.478 33.416C178.046 33.416 176.18 32.52 174.878 30.728V39.4H171.422V17H174.878V19.304C176.18 17.4907 178.046 16.584 180.478 16.584ZM176.318 28.68C177.278 29.64 178.484 30.12 179.934 30.12C181.385 30.12 182.59 29.64 183.55 28.68C184.51 27.6987 184.99 26.472 184.99 25C184.99 23.528 184.51 22.312 183.55 21.352C182.59 20.3707 181.385 19.88 179.934 19.88C178.484 19.88 177.278 20.3707 176.318 21.352C175.358 22.312 174.878 23.528 174.878 25C174.878 26.472 175.358 27.6987 176.318 28.68ZM200.635 16.584C202.832 16.584 204.709 17.4053 206.267 19.048C207.824 20.6693 208.603 22.6533 208.603 25C208.603 27.368 207.824 29.3627 206.267 30.984C204.709 32.6053 202.832 33.416 200.635 33.416C198.203 33.416 196.336 32.52 195.035 30.728V39.4H191.579V17H195.035V19.304C196.336 17.4907 198.203 16.584 200.635 16.584ZM196.475 28.68C197.435 29.64 198.64 30.12 200.091 30.12C201.541 30.12 202.747 29.64 203.707 28.68C204.667 27.6987 205.147 26.472 205.147 25C205.147 23.528 204.667 22.312 203.707 21.352C202.747 20.3707 201.541 19.88 200.091 19.88C198.64 19.88 197.435 20.3707 196.475 21.352C195.515 22.312 195.035 23.528 195.035 25C195.035 26.472 195.515 27.6987 196.475 28.68Z" fill="#FFC491"/>
<defs>
<clipPath id="clip0_3158_785">
<rect width="48" height="48" fill="white"/>
</clipPath>
</defs>
</svg>
