<svg width="32" height="32" viewBox="0 0 32 32" fill="none" xmlns="http://www.w3.org/2000/svg">
<path fill-rule="evenodd" clip-rule="evenodd" d="M11.0575 15.0573C10.8076 15.3074 10.6671 15.6465 10.6671 16C10.6671 16.3536 10.8076 16.6926 11.0575 16.9427L18.6002 24.4853C18.7232 24.6127 18.8703 24.7143 19.033 24.7841C19.1957 24.854 19.3706 24.8908 19.5477 24.8923C19.7247 24.8939 19.9003 24.8601 20.0641 24.7931C20.228 24.7261 20.3769 24.6271 20.5021 24.5019C20.6272 24.3767 20.7262 24.2278 20.7933 24.0639C20.8603 23.9001 20.8941 23.7245 20.8925 23.5475C20.891 23.3704 20.8542 23.1955 20.7843 23.0328C20.7145 22.8701 20.6129 22.723 20.4855 22.6L13.8855 16L20.4855 9.40001C20.7284 9.14854 20.8628 8.81174 20.8598 8.46214C20.8567 8.11255 20.7165 7.77813 20.4693 7.53092C20.2221 7.28371 19.8877 7.14348 19.5381 7.14044C19.1885 7.13741 18.8517 7.2718 18.6002 7.51468L11.0575 15.0573Z" fill="#FFC491"/>
</svg>
