<svg width="108" height="94" viewBox="0 0 108 94" fill="none" xmlns="http://www.w3.org/2000/svg">
<g filter="url(#filter0_b_3159_2332)">
<rect x="15" y="13" width="68" height="52" rx="9" stroke="#FFC491" stroke-width="2"/>
</g>
<g clip-path="url(#clip0_3159_2332)">
<path d="M72.5003 45.2501V45.2511C72.5002 46.2458 72.1049 47.1996 71.4015 47.9029C70.6981 48.6062 69.7442 49.0012 68.7495 49.0011C67.7548 49.0011 66.8009 48.6059 66.0976 47.9025C65.3943 47.1992 64.9992 46.2452 64.9992 45.2506C64.9992 44.2559 65.3943 43.302 66.0976 42.5986C66.8009 41.8953 67.7548 41.5001 68.7495 41.5C69.7442 41.5 70.6981 41.895 71.4015 42.5983C72.1049 43.3015 72.5002 44.2554 72.5003 45.2501ZM92.5 31.5V76.5C92.4985 77.8256 91.9712 79.0965 91.0339 80.0339C90.0965 80.9712 88.8256 81.4985 87.5 81.5H32.5C31.1744 81.4985 29.9035 80.9712 28.9661 80.0339C28.0288 79.0965 27.5015 77.8256 27.5 76.5V31.5C27.5015 30.1744 28.0288 28.9035 28.9661 27.9661C29.9035 27.0288 31.1744 26.5015 32.5 26.5H87.5C88.8256 26.5015 90.0965 27.0288 91.0339 27.9661C91.9712 28.9035 92.4985 30.1744 92.5 31.5ZM80.6735 58.6377C83.1934 61.1577 87.5021 59.3727 87.5019 55.809L87.5003 35.4997C87.5001 33.2907 85.7093 31.5 83.5003 31.5H36.5C34.2909 31.5 32.5 33.2909 32.5 35.5V50.8076C32.5 54.3712 36.8085 56.1559 39.3284 53.6361L43.9645 49.0001C44.903 48.0638 46.1745 47.538 47.5002 47.538C48.8258 47.538 50.0973 48.0638 51.0358 49.0001L62.1718 60.1361C63.7339 61.6983 66.2667 61.6982 67.8287 60.1361L71.4645 56.5001C72.403 55.5638 73.6745 55.038 75.0002 55.038C76.3258 55.038 77.5973 55.5638 78.5358 56.5001L80.6735 58.6377Z" fill="#FFC491"/>
</g>
<defs>
<filter id="filter0_b_3159_2332" x="-4.22186" y="-6.22186" width="106.444" height="90.4437" filterUnits="userSpaceOnUse" color-interpolation-filters="sRGB">
<feFlood flood-opacity="0" result="BackgroundImageFix"/>
<feGaussianBlur in="BackgroundImageFix" stdDeviation="9.11093"/>
<feComposite in2="SourceAlpha" operator="in" result="effect1_backgroundBlur_3159_2332"/>
<feBlend mode="normal" in="SourceGraphic" in2="effect1_backgroundBlur_3159_2332" result="shape"/>
</filter>
<clipPath id="clip0_3159_2332">
<rect width="80" height="80" fill="white" transform="translate(20 14)"/>
</clipPath>
</defs>
</svg>
