<svg width="20" height="20" viewBox="0 0 20 20" fill="none" xmlns="http://www.w3.org/2000/svg">
<path fill-rule="evenodd" clip-rule="evenodd" d="M4.37533 8.379V6.6665C4.37533 5.17466 4.96796 3.74392 6.02285 2.68903C7.07774 1.63414 8.50848 1.0415 10.0003 1.0415C11.4922 1.0415 12.9229 1.63414 13.9778 2.68903C15.0327 3.74392 15.6253 5.17466 15.6253 6.6665V8.379C16.5545 8.44817 17.1587 8.62317 17.6012 9.06567C18.3337 9.79734 18.3337 10.9765 18.3337 13.3332C18.3337 15.6898 18.3337 16.869 17.6012 17.6007C16.8695 18.3332 15.6903 18.3332 13.3337 18.3332H6.66699C4.31033 18.3332 3.13116 18.3332 2.39949 17.6007C1.66699 16.869 1.66699 15.6898 1.66699 13.3332C1.66699 10.9765 1.66699 9.79734 2.39949 9.06567C2.84116 8.62317 3.44616 8.44817 4.37533 8.379ZM5.62533 6.6665C5.62533 5.50618 6.08626 4.39338 6.90673 3.57291C7.7272 2.75244 8.84 2.2915 10.0003 2.2915C11.1606 2.2915 12.2734 2.75244 13.0939 3.57291C13.9144 4.39338 14.3753 5.50618 14.3753 6.6665V8.3365C14.0564 8.33373 13.7092 8.33261 13.3337 8.33317H6.66699C6.29088 8.33261 5.94366 8.33373 5.62533 8.3365V6.6665ZM6.66699 14.1665C6.88801 14.1665 7.09997 14.0787 7.25625 13.9224C7.41253 13.7661 7.50033 13.5542 7.50033 13.3332C7.50033 13.1122 7.41253 12.9002 7.25625 12.7439C7.09997 12.5876 6.88801 12.4998 6.66699 12.4998C6.44598 12.4998 6.23402 12.5876 6.07774 12.7439C5.92146 12.9002 5.83366 13.1122 5.83366 13.3332C5.83366 13.5542 5.92146 13.7661 6.07774 13.9224C6.23402 14.0787 6.44598 14.1665 6.66699 14.1665ZM10.0003 14.1665C10.2213 14.1665 10.4333 14.0787 10.5896 13.9224C10.7459 13.7661 10.8337 13.5542 10.8337 13.3332C10.8337 13.1122 10.7459 12.9002 10.5896 12.7439C10.4333 12.5876 10.2213 12.4998 10.0003 12.4998C9.77931 12.4998 9.56735 12.5876 9.41107 12.7439C9.25479 12.9002 9.16699 13.1122 9.16699 13.3332C9.16699 13.5542 9.25479 13.7661 9.41107 13.9224C9.56735 14.0787 9.77931 14.1665 10.0003 14.1665ZM14.167 13.3332C14.167 13.5542 14.0792 13.7661 13.9229 13.9224C13.7666 14.0787 13.5547 14.1665 13.3337 14.1665C13.1126 14.1665 12.9007 14.0787 12.7444 13.9224C12.5881 13.7661 12.5003 13.5542 12.5003 13.3332C12.5003 13.1122 12.5881 12.9002 12.7444 12.7439C12.9007 12.5876 13.1126 12.4998 13.3337 12.4998C13.5547 12.4998 13.7666 12.5876 13.9229 12.7439C14.0792 12.9002 14.167 13.1122 14.167 13.3332Z" fill="#F8F8F8"/>
</svg>
