<svg width="12" height="20" viewBox="0 0 12 20" fill="none" xmlns="http://www.w3.org/2000/svg">
<path d="M11.0014 0.98491C10.8852 0.868502 10.7473 0.776145 10.5954 0.713129C10.4436 0.650113 10.2808 0.617676 10.1164 0.617676C9.95193 0.617676 9.78913 0.650113 9.63727 0.713129C9.4854 0.776145 9.34747 0.868502 9.23135 0.98491L0.921351 9.29491C0.828647 9.38742 0.755099 9.49731 0.704918 9.61829C0.654736 9.73926 0.628906 9.86894 0.628906 9.99991C0.628906 10.1309 0.654736 10.2606 0.704918 10.3815C0.755099 10.5025 0.828647 10.6124 0.921351 10.7049L9.23135 19.0149C9.72135 19.5049 10.5114 19.5049 11.0014 19.0149C11.4914 18.5249 11.4914 17.7349 11.0014 17.2449L3.76135 9.99491L11.0114 2.74491C11.4914 2.26491 11.4914 1.46491 11.0014 0.98491Z" fill="#FFC491"/>
</svg>
